<svg width="24" height="24" viewBox="0 0 24 24" fill="none" xmlns="http://www.w3.org/2000/svg">
<mask id="mask0_85_12223" style="mask-type:luminance" maskUnits="userSpaceOnUse" x="2" y="3" width="21" height="20">
<path fill-rule="evenodd" clip-rule="evenodd" d="M2 2.99991H22.4725V22.5009H2V2.99991Z" fill="white"/>
</mask>
<g mask="url(#mask0_85_12223)">
<path fill-rule="evenodd" clip-rule="evenodd" d="M3.82396 12.123C5.22596 16.485 10.765 20.012 12.237 20.885C13.714 20.003 19.293 16.437 20.65 12.127C21.541 9.341 20.714 5.812 17.428 4.753C15.836 4.242 13.979 4.553 12.697 5.545C12.429 5.751 12.057 5.755 11.787 5.551C10.429 4.53 8.65496 4.231 7.03796 4.753C3.75696 5.811 2.93296 9.34 3.82396 12.123ZM12.238 22.501C12.114 22.501 11.991 22.471 11.879 22.41C11.566 22.239 4.19296 18.175 2.39596 12.581C2.39496 12.581 2.39496 12.58 2.39496 12.58C1.26696 9.058 2.52296 4.632 6.57796 3.325C8.48196 2.709 10.557 2.98 12.235 4.039C13.861 3.011 16.021 2.727 17.887 3.325C21.946 4.634 23.206 9.059 22.079 12.58C20.34 18.11 12.913 22.235 12.598 22.408C12.486 22.47 12.362 22.501 12.238 22.501Z" fill="#FF529A"/>
</g>
<path d="M11.9787 8.83148C11.9787 7.97133 12.2339 6.53259 11.6086 5.87043C11.296 5.53946 10.7538 5.48649 10.3172 5.42627C9.62532 5.33084 8.9833 5.27822 8.28149 5.27822C7.91657 5.27822 7.38706 5.18163 7.03538 5.29467C6.51731 5.46119 5.86436 6.00178 5.58776 6.45441C5.30074 6.92408 4.90184 7.3724 4.66654 7.86914C4.32177 8.59698 4.35398 9.50919 4.35398 10.2956C4.35398 10.9638 4.2733 11.7816 4.47325 12.4259C4.74325 13.2959 5.3719 14.1227 5.99901 14.77C6.9979 15.8011 7.87787 16.8967 8.98063 17.8298C9.8963 18.6046 11.5021 20.2235 12.7683 19.4131C13.635 18.8584 14.3239 18.1742 15.0467 17.4514C15.5605 16.9376 16.0812 16.3617 16.5108 15.7735C16.9876 15.1204 17.6027 14.5634 18.0324 13.8817C18.482 13.1685 19.0594 12.4421 19.3443 11.6445C19.427 11.4128 19.6034 10.7076 19.6034 10.9536C19.6034 11.2091 19.4595 11.4509 19.3813 11.6897C19.2284 12.1571 19.1211 12.6643 18.8631 13.088C18.6628 13.4171 18.4485 13.7653 18.3079 14.1244C18.1622 14.4968 17.8693 14.8366 17.6787 15.1977C17.5704 15.4031 17.4055 15.5779 17.2798 15.7735C16.9834 16.2346 17.5635 14.7129 17.7527 14.1984C18.173 13.0559 18.6009 11.9657 19.2086 10.9124C19.4336 10.5225 19.8995 9.98541 19.8995 9.51417C19.8995 9.03879 19.9219 8.54907 19.7926 8.0871C19.6845 7.70114 19.364 7.42229 19.1222 7.12476C18.5405 6.40879 17.3049 6.00111 16.4203 5.77995C15.4471 5.53666 14.5384 5.61001 13.6237 6.00203C12.802 6.35422 11.9446 6.75874 11.0369 6.75874C10.1769 6.75874 9.32834 6.83277 8.47067 6.83277C7.74733 6.83277 7.32322 7.43562 7.12997 8.05832C6.6996 9.44508 6.71253 11.2816 7.22456 12.6315C7.75855 14.0393 8.8914 15.5157 9.94708 16.5713C10.5457 17.17 11.2775 17.5549 12.0774 17.8216C12.2477 17.8783 12.4869 17.9964 12.6696 17.912C13.0928 17.7167 13.4539 17.2457 13.7636 16.9209C14.2162 16.4461 14.6834 15.9662 15.0672 15.4322C15.7109 14.5367 16.2739 13.4853 16.8069 12.5163C17.5124 11.2336 18.0527 9.64448 17.9748 8.16524C17.956 7.80754 16.511 7.78224 16.3051 7.75399C14.5113 7.50778 12.6879 7.73526 10.8848 7.61005C10.3849 7.57534 9.8885 7.57303 9.38777 7.57303C9.06296 7.57303 8.654 7.50008 8.35141 7.64706C8.25476 7.694 8.0877 7.77316 8.13755 7.91026C8.19338 8.0638 8.41338 8.20128 8.52413 8.30096C8.90327 8.64218 9.25937 9.01016 9.65098 9.33733C10.9005 10.3813 12.41 10.4535 13.961 10.5917C14.5442 10.6436 15.1188 10.6821 15.7047 10.6821C15.8822 10.6821 16.1282 10.7384 16.2722 10.6081C16.4346 10.4612 16.6114 10.3322 16.7863 10.201C17.0106 10.0328 15.9227 9.71044 15.8404 9.67867C14.5396 9.17636 13.5484 9.04824 12.2255 9.54707C11.256 9.91258 10.1897 10.2693 9.32609 10.8631C8.91063 11.1487 9.48537 11.7903 9.64687 12.0475C10.1124 12.7889 11.1504 13.9611 12.1679 13.6103C12.5948 13.4631 12.9957 13.0946 13.3852 12.8659C13.5244 12.7842 14.0798 12.5262 14.1213 12.3395C14.208 11.9494 13.7576 11.574 13.5086 11.3648C13.007 10.9434 12.251 10.4101 11.551 10.4601C11.3508 10.4744 11.1667 12.8163 11.1644 12.9934C11.1569 13.5607 11.1644 14.1286 11.1644 14.696C11.1644 14.9225 11.2836 14.947 11.4235 15.1237C11.6617 15.4246 12.0688 15.83 12.4969 15.7077C12.7033 15.6487 12.9498 15.1204 13.0891 14.9592C13.3632 14.6421 13.6305 14.3194 13.8129 13.9393C14.0588 13.427 14.3181 12.9313 14.5943 12.4341C14.797 12.0692 14.7747 11.924 14.7177 11.4964" stroke="#FF529A" stroke-width="3" stroke-linecap="round"/>
<path fill-rule="evenodd" clip-rule="evenodd" d="M18.6664 9.92116C18.2794 9.92116 17.9514 9.62416 17.9194 9.23216C17.8534 8.41016 17.3034 7.71616 16.5204 7.46316C16.1254 7.33516 15.9094 6.91216 16.0364 6.51916C16.1654 6.12516 16.5844 5.91116 16.9804 6.03516C18.3434 6.47616 19.2984 7.68316 19.4154 9.11016C19.4484 9.52316 19.1414 9.88516 18.7284 9.91816C18.7074 9.92016 18.6874 9.92116 18.6664 9.92116Z" fill="white"/>
</svg>
